<svg version="1.1" xmlns="http://www.w3.org/2000/svg" viewBox="0 0 2048 2048" width="1000" height="1000" preserveAspectRatio="none" display="block"><path fill="rgb(72,121,121)" d="M 708.245 348.5 L 1369.83 348.401 C 1400.85 348.378 1439.26 348.036 1469.45 353.328 C 1518.6 361.944 1567.78 388.425 1603.25 423.024 C 1641.67 460.497 1668.9 506.911 1680.62 559.383 C 1691.27 607.059 1688.74 665.928 1688.53 715.476 L 1688.47 863.971 L 1688.83 1410.88 C 1688.73 1514.83 1648 1595.16 1559.42 1651.04 C 1494.21 1692.17 1439.53 1692.32 1365.69 1691.91 L 846.703 1691.95 L 715.65 1692.05 C 662.873 1692.53 606.775 1695.54 555.545 1681.17 C 442.063 1649.34 358.754 1542.76 360.061 1424.25 C 360.181 1413.38 359.992 1402.3 359.99 1391.4 L 360.064 1289.46 L 360.039 966.712 L 360.02 722.58 L 360.034 652.2 C 360.044 623.791 358.917 604.399 364.101 576.14 C 373.704 523.793 392.953 482.828 427.524 442.485 C 475.824 386.28 545.109 352.408 619.128 348.813 C 647.512 347.487 679.284 350.712 708.245 348.5 z" data-c-fill="487979"/><path fill="rgb(210,240,224)" d="M 623.248 382.43 C 639.16 381.328 659.552 382.369 675.898 382.358 L 787.232 382.368 L 1122.83 382.399 L 1334.81 382.367 C 1365.97 382.356 1429.81 380.568 1457.48 385.315 C 1500.21 392.95 1539.97 412.322 1572.32 441.264 C 1621.31 485.089 1650.48 546.871 1653.19 612.544 C 1654.08 633.788 1653.47 657.029 1653.36 678.462 L 1653.33 776.025 L 1653.73 1163.02 L 1653.83 1347.84 C 1653.85 1374.39 1654.08 1400.98 1653.8 1427.54 C 1652.45 1556.78 1549.26 1653.07 1422.59 1658.32 L 864.682 1658.56 L 704.831 1658.49 C 667.816 1658.44 622.899 1660.52 587.128 1653.97 C 544.141 1645.74 504.13 1626.18 471.232 1597.32 C 428.747 1560.3 396.488 1498.73 394.292 1442.49 C 393.416 1420.04 393.822 1396.26 393.902 1373.7 L 393.856 1270.69 L 394.037 912.37 L 393.864 706.954 C 393.822 675.64 392.63 643.052 394.481 611.887 C 401.992 485.408 497.405 389.014 623.248 382.43 z" data-c-fill="d2f0e0"/><path fill="rgb(72,121,121)" d="M 1111.58 993.717 C 1116.54 1046.17 1088.9 1079.59 1096.47 1129.18 C 1101.46 1161.87 1130.38 1185.98 1152.11 1209.13 C 1173.24 1231.55 1194.17 1254.16 1214.88 1276.96 C 1223.13 1285.93 1256.44 1314.83 1222.15 1322.26 C 1212.32 1324.39 1189.1 1322.12 1177.99 1322.14 L 1042.33 1322.17 L 811.574 1322.22 L 738.322 1322.38 C 709.034 1322.41 685.929 1325.78 660.564 1308.14 C 616.946 1277.8 623.244 1235.77 623.329 1189.52 L 623.358 1074.07 L 623.01 806.232 C 623.1 765.48 622.971 724.714 623.425 683.968 C 623.563 671.521 628.388 663.246 641.798 662.164 C 667.181 660.116 693.177 662.093 718.682 661.687 C 734.794 661.431 751.142 661.041 767.232 661.476 C 777.931 661.938 784.275 669.228 784.472 679.642 C 784.926 703.54 784.181 727.432 784.263 751.349 C 783.933 808.493 784.08 865.639 784.703 922.78 C 792.401 908.629 806.935 891.979 817.705 880.126 C 818.548 876.156 818.514 868.893 820.504 866.454 L 822.533 866.76 C 824.137 868.591 825.561 870.103 827.24 871.845 C 848.343 856.525 854.966 852.993 878.858 843.874 C 878.706 822.913 875.195 679.88 881.573 669.665 C 883.468 666.631 886.98 664.104 890.497 663.366 C 895.237 662.373 899.757 664.852 903.916 666.898 C 918.731 674.182 932.985 683.334 947.255 691.65 C 973.401 706.679 999.435 721.904 1025.35 737.323 L 1098.68 780.509 C 1123.32 794.711 1147.92 808.086 1171.5 824.254 C 1177.69 825.681 1212.33 845.217 1216.84 848.789 C 1220.51 851.642 1223.65 855.119 1226.12 859.06 C 1231.97 868.6 1233.98 882.823 1230.01 893.463 C 1221.81 915.464 1114.82 984.865 1111.58 993.717 z" data-c-fill="487979"/><path fill="rgb(169,214,184)" d="M1171.5 824.254C1177.69 825.681 1212.33 845.217 1216.84 848.789 1220.51 851.642 1223.65 855.119 1226.12 859.06 1231.97 868.6 1233.98 882.823 1230.01 893.463 1221.81 915.464 1114.82 984.865 1111.58 993.717 1106.32 958.38 1098.82 935.739 1080.38 905.996 1096.99 892.919 1167.82 852.479 1173.19 839.618 1175.36 834.408 1173.56 829.168 1171.5 824.254zM817.705 880.126C818.548 876.156 818.514 868.893 820.504 866.454L822.533 866.76C824.137 868.591 825.561 870.103 827.24 871.845L817.705 880.126z" data-c-fill="a9d6b8"/><path fill="rgb(210,240,224)" d="M 652.907 691.043 L 755.06 690.927 L 755.013 1020.27 C 755.017 1075.47 753.42 1139.13 755.264 1193.65 C 758.984 1199.13 759.247 1199.57 764.606 1203.73 C 802.964 1205.36 849.174 1204.19 888.322 1204.17 L 1108.33 1204.08 C 1133.07 1231.36 1157.94 1258.62 1183.2 1285.43 C 1185.1 1287.46 1185.96 1289.77 1186.74 1292.38 C 1184.82 1292.55 1182.29 1292.64 1180.34 1292.65 C 1144.09 1292.88 1107.74 1292.79 1071.5 1292.79 L 862.269 1292.77 L 755.562 1292.78 C 748.227 1292.8 740.855 1292.9 733.521 1292.86 C 708.635 1292.72 687.988 1296.05 668.593 1277.02 C 660.581 1269.24 655.361 1259.03 653.745 1247.98 C 652.052 1236.52 653.024 1204.17 653.096 1191.59 L 653.23 1087.85 C 653.299 956.525 654.596 822.057 652.907 691.043 z" data-c-fill="d2f0e0"/><path fill="rgb(193,133,68)" d="M 930.661 855.407 C 986.816 850.8 1043.14 883.729 1069.15 931.525 C 1094.75 978.558 1095.62 1019.8 1078.25 1068.46 C 1064.56 1106.78 1071.52 1138.72 1091.05 1174.46 C 1054.28 1176.69 1002.6 1175.11 964.5 1175.06 L 784.972 1175 L 784.87 1063.84 C 784.901 1036.27 783.576 1001.85 789.105 975.542 C 793.333 955.427 808.697 922.529 822.682 907.398 C 853.465 874.091 886.159 858.73 930.661 855.407 z" data-c-fill="c18544"/><path fill="rgb(229,178,113)" d="M 804.97 995.687 C 804.298 981.694 810.281 963.444 816.211 950.606 C 832.731 914.847 880.495 899.326 916.026 913.878 C 919.077 914.854 938.761 927.774 940.902 926.481 C 951.917 919.823 965.711 910.117 978.546 908.791 C 1019.35 904.575 1056.25 925.723 1068.47 965.667 C 1070.32 971.715 1076.24 986.92 1073.65 992.086 L 1073.7 993.74 C 1074.42 1013.59 1078.66 1031.17 1067.97 1049.91 C 1066.17 1053.06 1064.25 1058.57 1061.82 1061.1 C 1061.9 1065.54 1059.05 1068.13 1056.2 1071.46 C 1003.06 1133.45 896.389 1137.74 836.094 1084.21 C 831.044 1079.73 817.708 1066.86 817.337 1060 C 802.011 1039.95 802.202 1019.17 804.97 995.687 z" data-c-fill="e5b271"/><path fill="rgb(72,121,121)" d="M 804.97 995.687 C 826.325 944.962 915.775 935.004 900.671 997.465 C 895.845 1017.42 836.371 1027.28 817.337 1060 C 802.011 1039.95 802.202 1019.17 804.97 995.687 z" data-c-fill="487979"/><path fill="rgb(35,77,83)" d="M 863.307 974.171 C 871.342 973.859 877.75 975.912 880.818 984.151 C 882.343 988.251 882 992.813 879.879 996.639 C 877.365 1001.16 873.54 1002.53 868.908 1003.99 C 846.403 1003.08 844.026 980.033 863.307 974.171 z" data-c-fill="234d53"/><path fill="rgb(72,121,121)" d="M 1061.82 1061.1 C 1054.81 1043.13 1022.55 1023.51 1003.98 1018.14 C 977.711 1010.55 963.598 977.891 988.036 960.306 C 1015.31 940.683 1056.83 965.465 1073.65 992.086 L 1073.7 993.74 C 1074.42 1013.59 1078.66 1031.17 1067.97 1049.91 C 1066.17 1053.06 1064.25 1058.57 1061.82 1061.1 z" data-c-fill="487979"/><path fill="rgb(35,77,83)" d="M1006.68 974.186C1029.99 972.273 1035.08 994.031 1014.96 1005.22 1008.02 1002.73 1003.23 1003.08 998.56 995.896 992.201 986.111 998.284 979.473 1006.68 974.186zM888.27 1041.98C892.635 1042.16 904.683 1049.83 909.921 1052.27 927.022 1060.24 948.058 1061.61 965.469 1053.85 974.287 1049.92 980.683 1045.53 990.295 1041.97 1001.02 1043.63 996.905 1054.15 991.532 1059.65 969.989 1075.66 939.364 1079.91 913.882 1072.2 903.369 1069.01 887.364 1063.64 881.505 1053.81 878.056 1048.01 883.705 1044 888.27 1041.98zM934.598 1003.37C972.626 1000.48 982.883 1028.44 946.336 1039.99 937.885 1040.63 925.14 1040.12 919.222 1034.16 899.829 1014.64 916.222 1005.16 934.598 1003.37z" data-c-fill="234d53"/><path fill="#d2f0e0" d="M 908.031 705.443 C 924.003 715.902 949.553 729.519 966.559 739.317 L 1067.84 797.977 C 1089.79 810.732 1111.52 822.867 1132.95 836.506 C 1123.47 841.618 1112.62 849.064 1103.44 855.02 C 1089.23 863.79 1074.44 874.314 1060.06 883.444 C 1055.96 879.812 1051.84 876.217 1047.68 872.658 C 1017.95 847.257 980.319 832.965 941.22 832.222 C 930.764 832.066 917.893 833.592 907.208 834.465 C 907.493 791.288 907.211 748.718 908.031 705.443 z" data-c-fill="2b2c53" fill-opacity="1"/><path fill="rgb(72,121,121)" d="M 1280.32 662.042 C 1290.76 661.685 1295.6 669.356 1296.25 678.982 C 1297.34 694.925 1296.94 711.028 1296.89 727.015 L 1296.75 806.377 L 1296.56 1045.44 C 1296.64 1080.35 1295.63 1120.99 1297 1155.35 L 1360.68 1078.17 C 1373.69 1062.26 1386.25 1046.26 1400.06 1030.84 C 1408.73 1021.15 1420.65 1022.11 1423.82 1035.94 C 1425.35 1042.58 1422.56 1047.95 1418.55 1053.16 C 1407.55 1067.43 1395.91 1081.34 1384.38 1095.22 L 1332.69 1157.46 C 1319.54 1173.19 1305.33 1191.25 1291.27 1206.18 C 1289.22 1208.35 1283.76 1208.97 1280.74 1209.46 C 1280.33 1209.3 1279.91 1209.14 1279.5 1208.97 C 1274.53 1206.9 1271.05 1203.57 1267.41 1199.74 C 1252.26 1183.82 1141.8 1051.06 1139.53 1042.96 C 1138.44 1039.05 1139.4 1033.06 1141.98 1029.86 C 1144.54 1026.67 1150.72 1024.24 1154.77 1024.59 C 1157.97 1024.87 1159.78 1026.06 1162.08 1028.17 C 1175.21 1040.26 1186.79 1056.4 1198.23 1070.2 C 1221.85 1098.4 1245.02 1126.98 1267.71 1155.93 L 1267.56 799.569 L 1267.35 714.729 C 1267.39 702.287 1266.91 687.106 1268.67 674.807 C 1269.53 668.827 1275.52 664.979 1280.32 662.042 z" data-c-fill="487979"/><path fill="rgb(35,77,83)" d="M 835.632 444.015 C 870.282 445.022 919.437 436.822 945.615 463.256 C 974.379 492.302 971.961 536.829 944.132 565.384 C 918.38 589.786 869.821 583.853 835.401 583.706 L 835.632 444.015 z" data-c-fill="234d53"/><path fill="rgb(210,240,224)" d="M 851.506 457.885 C 877.23 457.705 913.508 453.448 933.037 472.691 C 955.428 494.754 954.374 533.382 932.81 555.628 C 908.672 574.191 881.209 569.882 851.467 569.828 C 851.27 532.514 851.283 495.199 851.506 457.885 z" data-c-fill="d2f0e0"/><path fill="rgb(35,77,83)" d="M 1119.72 444.413 C 1145.24 443.68 1182.5 439.91 1204.27 454.432 C 1229.65 471.37 1227.76 513.832 1201.38 529.107 C 1190.06 535.663 1182.81 536.391 1170.24 537.864 C 1156.2 538.095 1142.15 538.106 1128.11 537.897 L 1128.04 583.449 C 1122.97 583.664 1117.1 583.494 1111.97 583.473 L 1111.91 495.691 C 1111.87 481.206 1111.21 459.525 1112.25 445.738 C 1114.42 444.173 1116.51 444.629 1119.72 444.413 z" data-c-fill="234d53"/><path fill="rgb(210,240,224)" d="M 1128.18 457.85 C 1152.19 457.673 1200.8 451.181 1205.48 483.933 C 1207.29 496.608 1205.14 506.081 1196.21 515.284 C 1177.96 527.474 1150.44 524.515 1128.14 524.584 L 1128.18 457.85 z" data-c-fill="d2f0e0"/><path fill="rgb(35,77,83)" d="M 996.912 444.318 L 1012.13 444.168 L 1012.27 569.738 L 1089.03 569.819 L 1088.86 583.635 C 1058.41 584.084 1026.98 583.774 996.46 583.658 C 998.403 540.496 996.76 488.28 996.912 444.318 z" data-c-fill="234d53"/></svg>